<?xml version="1.0" standalone="no"?>
<!DOCTYPE svg PUBLIC "-//W3C//DTD SVG 20010904//EN"
 "http://www.w3.org/TR/2001/REC-SVG-20010904/DTD/svg10.dtd">
<svg version="1.0" xmlns="http://www.w3.org/2000/svg"
 width="512.000000pt" height="512.000000pt" viewBox="0 0 512.000000 512.000000"
 preserveAspectRatio="xMidYMid meet">
<metadata>
Created by potrace 1.14, written by Peter Selinger 2001-2017
</metadata>
<g transform="translate(0.000000,512.000000) scale(0.100000,-0.100000)"
fill="#000000" stroke="none">
<path d="M2380 4920 c-1255 -83 -2256 -994 -2369 -2154 -65 -668 195 -1355
695 -1836 410 -394 929 -639 1519 -716 174 -22 495 -22 670 1 325 42 583 119
871 260 913 448 1450 1381 1339 2327 -108 926 -769 1694 -1718 1997 -310 99
-676 143 -1007 121z m-250 -280 c82 -89 129 -222 130 -366 0 -86 -17 -146 -79
-278 -60 -125 -99 -171 -212 -247 -66 -44 -95 -71 -116 -106 -27 -46 -28 -53
-28 -188 0 -133 -1 -140 -20 -140 -14 0 -33 24 -70 92 -84 154 -92 159 -344
228 -151 41 -183 47 -250 44 -69 -4 -89 -9 -174 -52 -102 -50 -149 -94 -187
-173 -29 -59 -41 -145 -30 -206 19 -96 45 -136 177 -270 70 -70 170 -181 223
-245 80 -98 106 -123 155 -148 l58 -30 241 -5 c133 -3 249 -9 258 -14 10 -4
33 -30 52 -56 54 -75 110 -107 242 -140 63 -15 121 -34 130 -41 8 -7 36 -50
62 -96 25 -46 62 -100 81 -119 22 -21 106 -71 213 -125 170 -85 198 -106 198
-145 0 -10 -44 -61 -98 -113 -88 -86 -101 -104 -128 -171 l-29 -74 -104 -46
c-151 -66 -211 -135 -227 -261 -5 -43 -40 -117 -166 -359 -88 -168 -161 -306
-163 -308 -6 -6 -156 39 -249 74 -129 49 -246 105 -246 118 0 6 9 70 20 141
24 159 25 208 4 268 -17 50 -77 125 -115 144 -13 6 -53 25 -89 42 -91 41 -137
84 -250 232 l-98 128 -7 246 c-8 255 -5 275 34 275 31 1 98 38 134 75 59 61
73 121 59 255 -13 123 -30 166 -89 221 -85 80 -237 172 -328 198 -22 7 -104
16 -182 21 -78 5 -171 14 -207 21 -79 13 -78 13 -41 145 40 140 83 249 151
384 262 520 736 920 1326 1121 59 20 312 88 332 89 5 0 26 -18 46 -40z m2185
-642 c115 -118 139 -147 133 -153 -3 -4 -48 3 -99 15 -52 11 -103 23 -113 25
-11 2 -42 -1 -69 -7 -74 -16 -141 -83 -158 -161 -12 -58 -14 -60 -86 -108
l-73 -50 -101 57 c-55 31 -110 65 -122 74 l-21 17 27 118 c15 65 32 124 37
131 7 7 59 14 138 19 143 8 188 22 244 78 19 19 44 55 54 80 l18 45 56 -48
c30 -27 91 -86 135 -132z m163 -903 c53 -9 163 -32 243 -51 l146 -35 17 -97
c49 -286 37 -593 -36 -865 l-20 -77 -36 31 c-90 79 -166 87 -328 33 -101 -34
-116 -36 -200 -32 -70 4 -104 11 -150 32 -77 35 -155 113 -189 187 -43 97 -43
155 4 387 46 233 68 289 143 368 62 66 113 98 188 118 71 19 100 19 218 1z
m-4197 -356 c30 -6 119 -14 199 -19 175 -9 226 -26 339 -110 43 -32 82 -63 85
-69 10 -15 24 -153 18 -169 -2 -7 -16 -15 -31 -19 -89 -21 -168 -91 -192 -172
-7 -23 -9 -135 -7 -311 3 -233 6 -281 20 -313 20 -44 190 -271 252 -335 48
-51 151 -120 221 -149 28 -12 58 -32 68 -45 16 -22 16 -29 1 -140 l-17 -116
-26 16 c-14 9 -77 54 -139 100 -522 388 -845 985 -863 1597 -5 145 0 265 10
265 4 0 33 -5 62 -11z"/>
</g>
</svg>
